<svg width="193.000000" height="57.000000" viewBox="0 0 193 57" fill="none" xmlns="http://www.w3.org/2000/svg" xmlns:xlink="http://www.w3.org/1999/xlink">
	<desc>
			Created with Pixso.
	</desc>
	<defs/>
	<rect id="Logotype" width="193.000000" height="57.000000" fill="#38BDF8" fill-opacity="0"/>
	<path id="Meter" d="M12.25 22.53L7.13 8.09L1.77 8.09L1.77 28L5.87 28L5.87 22.55L5.46 13.17L10.82 28L13.64 28L19.01 13.16L18.6 22.55L18.6 28L22.72 28L22.72 8.09L17.33 8.09L12.25 22.53ZM45.91 13.2L45.91 9.57L41.95 9.57L41.95 13.2L39.79 13.2L39.79 16.1L41.95 16.1L41.95 24.07Q42 26.19 43.08 27.24Q44.14 28.27 46.19 28.27Q46.98 28.27 47.74 28.12Q48.17 28.04 48.58 27.91L48.58 24.92Q48.08 25.01 47.42 25.01Q46.53 25.01 46.22 24.66Q45.91 24.3 45.91 23.48L45.91 16.1L48.43 16.1L48.43 13.2L45.91 13.2ZM28.78 27.23Q30.5 28.27 32.85 28.27Q34.69 28.27 36.21 27.56Q37.43 27 38.25 26.07Q38.44 25.85 38.62 25.6L36.68 23.43Q36.18 24.07 35.52 24.47Q34.5 25.08 33.11 25.08Q32.02 25.08 31.21 24.61Q30.92 24.44 30.67 24.21Q30.42 23.98 30.22 23.71Q29.65 22.95 29.51 21.88L38.93 21.88L38.93 20.27Q38.93 16.76 37.19 14.84Q36.73 14.34 36.18 13.96Q34.64 12.93 32.41 12.93Q30.76 12.93 29.4 13.56Q29.1 13.71 28.81 13.88Q28.31 14.18 27.89 14.56Q26.96 15.38 26.37 16.59Q25.51 18.34 25.51 20.57L25.51 20.95Q25.51 23.42 26.63 25.15Q27.02 25.76 27.55 26.27Q28.12 26.83 28.78 27.23ZM53.37 27.23Q55.09 28.27 57.44 28.27Q59.29 28.27 60.81 27.56Q62.03 27 62.84 26.07Q63.04 25.85 63.21 25.6L61.27 23.43Q60.77 24.07 60.12 24.47Q59.1 25.08 57.7 25.08Q56.62 25.08 55.81 24.61Q55.52 24.44 55.26 24.21Q55.01 23.98 54.81 23.71Q54.25 22.95 54.11 21.88L63.53 21.88L63.53 20.27Q63.53 16.76 61.79 14.84Q61.32 14.34 60.77 13.96Q59.24 12.93 57.01 12.93Q55.35 12.93 54 13.56Q53.69 13.71 53.4 13.88Q52.91 14.18 52.48 14.56Q51.55 15.38 50.96 16.59Q50.1 18.34 50.1 20.57L50.1 20.95Q50.1 23.42 51.23 25.15Q51.62 25.76 52.15 26.27Q52.71 26.83 53.37 27.23ZM72.66 16.8Q73.28 16.8 74.08 16.91L74.14 13.11Q73.56 12.93 72.91 12.93Q72.09 12.93 71.42 13.23Q70.34 13.72 69.61 14.97L69.5 13.2L65.77 13.2L65.77 28L69.72 28L69.72 18.32Q69.9 17.92 70.19 17.63Q71 16.8 72.66 16.8ZM31.09 16.44Q31.65 16.13 32.4 16.13Q33.47 16.13 34.13 16.65Q34.24 16.74 34.34 16.85Q34.36 16.87 34.38 16.89Q35.02 17.6 35.05 18.88L35.05 19.19L29.55 19.19Q29.76 17.71 30.49 16.92Q30.76 16.63 31.09 16.44ZM55.68 16.44Q56.25 16.13 56.99 16.13Q58.07 16.13 58.72 16.65Q58.84 16.74 58.93 16.85Q58.95 16.87 58.97 16.89Q59.62 17.6 59.65 18.88L59.65 19.19L54.15 19.19Q54.35 17.71 55.09 16.92Q55.35 16.63 55.68 16.44Z" fill="#38BDF8" fill-opacity="1.000000" fill-rule="evenodd"/>
	<path id="S" d="M93.3 32.31Q93.87 33.17 93.87 34.41Q93.87 35.4 93.45 36.14Q93.12 36.72 92.53 37.14Q91.18 38.12 88.77 38.12Q84.97 38.12 83.4 36.25Q82.31 34.94 82.31 32.71L75.54 32.71Q75.54 35.08 76.46 37.02Q76.76 37.67 77.17 38.28Q77.2 38.32 77.24 38.37Q78.86 40.71 81.9 42.06Q85 43.44 88.77 43.44Q94.21 43.44 97.42 41.03Q98.81 39.99 99.6 38.61Q100.63 36.78 100.63 34.37Q100.63 32.21 99.79 30.45Q99.15 29.1 98.01 27.99Q95.38 25.43 89.63 23.7Q86.51 22.76 84.9 21.68Q83.76 20.91 83.43 19.89Q83.29 19.47 83.29 19.01Q83.29 18.17 83.62 17.5Q83.96 16.79 84.66 16.26Q86.03 15.21 88.5 15.21Q91.07 15.21 92.48 16.46Q92.84 16.77 93.1 17.15Q93.9 18.27 93.9 19.95L100.63 19.95Q100.63 17.93 99.92 16.2Q99.59 15.42 99.12 14.69Q98.79 14.19 98.4 13.74Q97.01 12.11 94.86 11.11Q92.12 9.84 88.62 9.84Q85.14 9.84 82.34 11.01Q79.54 12.18 78.05 14.26Q77.44 15.1 77.08 16.04Q76.56 17.41 76.56 18.98Q76.56 20.52 77.06 21.86Q78.23 24.99 82.13 27.09Q84.17 28.19 87.67 29.33Q91.18 30.46 92.53 31.48Q93 31.84 93.3 32.31Z" fill="#38BDF8" fill-opacity="1.000000" fill-rule="evenodd"/>
	<path id="ystem" d="M137.69 29.2L137.69 25.57L133.74 25.57L133.74 29.2L131.58 29.2L131.58 32.1L133.74 32.1L133.74 40.07Q133.78 42.19 134.87 43.24Q135.92 44.27 137.98 44.27Q138.77 44.27 139.53 44.12Q139.96 44.04 140.37 43.91L140.37 40.92Q139.87 41.01 139.21 41.01Q138.32 41.01 138.01 40.66Q137.69 40.3 137.69 39.48L137.69 32.1L140.22 32.1L140.22 29.2L137.69 29.2ZM126.48 39.42Q126.58 39.64 126.58 39.91Q126.58 40.22 126.46 40.49Q126.32 40.8 126 41.04Q125.42 41.47 124.28 41.47Q123.07 41.47 122.34 40.91Q122.12 40.74 121.96 40.52Q121.6 40.03 121.56 39.29L117.82 39.29Q117.82 39.76 117.92 40.21Q118.1 41.04 118.64 41.79Q118.71 41.89 118.79 42Q119.59 43 120.9 43.61Q122.34 44.27 124.2 44.27Q126.95 44.27 128.68 43.02Q129.67 42.31 130.1 41.35Q130.42 40.62 130.42 39.74Q130.42 38.68 129.98 37.85Q129.24 36.48 127.29 35.76Q126.28 35.4 124.8 35.1Q123.33 34.81 122.7 34.4Q122.31 34.15 122.17 33.79Q122.08 33.59 122.08 33.34Q122.08 33.01 122.21 32.74Q122.34 32.43 122.63 32.2Q123.18 31.75 124.17 31.75Q125.34 31.75 125.88 32.3Q126.08 32.49 126.2 32.73Q126.43 33.15 126.43 33.7L130.38 33.7Q130.38 32.68 129.99 31.84Q129.56 30.94 128.69 30.25Q127 28.93 124.19 28.93Q121.64 28.93 120.03 30.15Q119.97 30.2 119.91 30.25Q118.96 31.02 118.56 32.02Q118.28 32.72 118.28 33.54Q118.28 34.32 118.57 34.98Q119.51 37.17 123.56 38.02Q125.14 38.35 125.86 38.77Q126.32 39.03 126.48 39.42ZM145.16 43.23Q146.88 44.27 149.23 44.27Q151.08 44.27 152.6 43.56Q153.82 43 154.63 42.07Q154.83 41.85 155 41.6L153.06 39.43Q152.56 40.07 151.91 40.47Q150.89 41.08 149.49 41.08Q148.41 41.08 147.6 40.61Q147.31 40.44 147.05 40.21Q146.8 39.98 146.6 39.71Q146.04 38.95 145.9 37.88L155.32 37.88L155.32 36.27Q155.32 32.76 153.57 30.84Q153.11 30.34 152.56 29.96Q151.03 28.93 148.8 28.93Q147.14 28.93 145.79 29.56Q145.48 29.71 145.19 29.88Q144.7 30.18 144.27 30.56Q143.34 31.38 142.75 32.59Q141.89 34.34 141.89 36.57L141.89 36.95Q141.89 39.42 143.02 41.15Q143.41 41.76 143.94 42.27Q144.5 42.83 145.16 43.23ZM161.39 30.86L161.27 29.2L157.56 29.2L157.56 44L161.51 44L161.51 33.54Q161.84 32.92 162.36 32.57Q163.01 32.14 163.94 32.14Q165.16 32.14 165.67 32.72Q166.17 33.29 166.17 34.58L166.17 44L170.12 44L170.11 33.84Q170.47 32.95 171.12 32.53Q171.72 32.14 172.57 32.14Q173.82 32.14 174.31 32.72Q174.8 33.3 174.8 34.56L174.8 44L178.77 44L178.77 34.55Q178.77 31.73 177.59 30.33Q177.41 30.12 177.21 29.94Q176.06 28.93 174.01 28.93Q172.4 28.93 171.2 29.63Q170.25 30.19 169.56 31.18Q169.16 30.32 168.48 29.79Q167.4 28.93 165.64 28.93Q164.03 28.93 162.82 29.62Q162.02 30.09 161.39 30.86ZM112.77 29.2L110.04 38.4L107.29 29.2L103.04 29.2L108.22 44.04L107.75 45.25Q107.44 46.05 106.89 46.39Q106.33 46.73 105.21 46.73L104.61 46.72L104.61 49.71Q105.5 49.97 106.36 49.97Q107.77 49.97 108.81 49.35Q110.02 48.63 110.73 47.07L111.06 46.29L117.01 29.2L112.77 29.2ZM147.47 32.44Q148.04 32.13 148.78 32.13Q149.86 32.13 150.51 32.65Q150.62 32.74 150.72 32.85Q150.74 32.87 150.76 32.89Q151.41 33.6 151.43 34.88L151.43 35.19L145.94 35.19Q146.14 33.71 146.88 32.92Q147.14 32.63 147.47 32.44Z" fill="#38BDF8" fill-opacity="1.000000" fill-rule="evenodd"/>
</svg>
